<?xml version="1.0" encoding="UTF-8" standalone="no"?>
<!DOCTYPE svg PUBLIC "-//W3C//DTD SVG 1.1//EN" "http://www.w3.org/Graphics/SVG/1.1/DTD/svg11.dtd">
<svg xmlns="http://www.w3.org/2000/svg" version="1.1" viewBox="0.00 0.00 50.00 50.00">
<g stroke-width="2.00" fill="none" stroke-linecap="butt">
<path stroke="#e28080" vector-effect="non-scaling-stroke" d="
  M 1.37 24.69
  A 22.91 22.30 -88.6 0 0 4.11 36.68
  A 23.02 22.37 89.7 0 0 14.78 46.68
  A 22.99 22.39 87.7 0 0 30.91 47.38
  A 22.98 22.39 -89.9 0 0 46.00 23.27
  A 23.01 22.38 -89.3 0 0 38.04 7.95"
/>
<path stroke="#f99695" vector-effect="non-scaling-stroke" d="
  M 38.04 7.95
  A 22.98 22.38 -89.8 0 0 10.00 7.47
  A 22.99 22.38 89.7 0 0 1.37 24.69"
/>
<path stroke="#e51f1f" vector-effect="non-scaling-stroke" d="
  M 38.04 7.95
  Q 36.92 8.23 36.72 9.17"
/>
<path stroke="#f99695" vector-effect="non-scaling-stroke" d="
  M 36.72 9.17
  Q 24.04 -0.18 11.75 8.46
  Q 3.91 13.97 3.19 24.76"
/>
<path stroke="#e51f1f" vector-effect="non-scaling-stroke" d="
  M 3.19 24.76
  Q 2.52 24.51 1.37 24.69"
/>
<path stroke="#e28080" vector-effect="non-scaling-stroke" d="
  M 36.72 9.17
  Q 46.37 18.64 43.60 30.39
  C 39.96 45.79 22.27 51.95 10.26 41.44
  Q 3.35 35.40 3.19 24.76"
/>
<path stroke="#f28e8e" vector-effect="non-scaling-stroke" d="
  M 6.06 19.37
  A 19.40 18.84 87.1 0 0 5.14 23.68"
/>
<path stroke="#e88586" vector-effect="non-scaling-stroke" d="
  M 5.14 23.68
  A 19.23 18.72 86.8 0 0 5.36 29.13"
/>
<path stroke="#e28080" vector-effect="non-scaling-stroke" d="
  M 5.36 29.13
  A 19.22 18.69 -89.7 0 0 12.00 40.55
  A 19.20 18.69 89.1 0 0 34.25 41.47
  A 19.22 18.71 -89.9 0 0 42.11 29.06
  A 19.20 18.68 -89.7 0 0 36.07 11.18"
/>
<path stroke="#e88586" vector-effect="non-scaling-stroke" d="
  M 36.07 11.18
  A 19.46 18.78 86.9 0 0 31.67 8.22"
/>
<path stroke="#f28e8e" vector-effect="non-scaling-stroke" d="
  M 31.67 8.22
  A 19.25 18.70 87.7 0 0 27.70 6.84"
/>
<path stroke="#f99695" vector-effect="non-scaling-stroke" d="
  M 27.70 6.84
  A 19.20 18.68 -89.5 0 0 15.43 8.40
  A 19.19 18.70 -89.8 0 0 6.06 19.37"
/>
<path stroke="#f52e2d" vector-effect="non-scaling-stroke" d="
  M 27.70 6.84
  Q 17.12 13.89 6.06 19.37"
/>
<path stroke="#e41d1e" vector-effect="non-scaling-stroke" d="
  M 31.67 8.22
  L 5.14 23.68"
/>
<path stroke="#d40f0f" vector-effect="non-scaling-stroke" d="
  M 36.07 11.18
  L 5.36 29.13"
/>
</g>
<path fill="#f6f6f6" d="
  M 0.00 0.00
  L 50.00 0.00
  L 50.00 50.00
  L 0.00 50.00
  L 0.00 0.00
  Z
  M 1.37 24.69
  A 22.91 22.30 -88.6 0 0 4.11 36.68
  A 23.02 22.37 89.7 0 0 14.78 46.68
  A 22.99 22.39 87.7 0 0 30.91 47.38
  A 22.98 22.39 -89.9 0 0 46.00 23.27
  A 23.01 22.38 -89.3 0 0 38.04 7.95
  A 22.98 22.38 -89.8 0 0 10.00 7.47
  A 22.99 22.38 89.7 0 0 1.37 24.69
  Z"
/>
<g>
<path fill="#fc3534" d="
  M 38.04 7.95
  Q 36.92 8.23 36.72 9.17
  Q 24.04 -0.18 11.75 8.46
  Q 3.91 13.97 3.19 24.76
  Q 2.52 24.51 1.37 24.69
  A 22.99 22.38 89.7 0 1 10.00 7.47
  A 22.98 22.38 -89.8 0 1 38.04 7.95
  Z"
/>
<path fill="#f6f6f6" d="
  M 36.72 9.17
  Q 46.37 18.64 43.60 30.39
  C 39.96 45.79 22.27 51.95 10.26 41.44
  Q 3.35 35.40 3.19 24.76
  Q 3.91 13.97 11.75 8.46
  Q 24.04 -0.18 36.72 9.17
  Z
  M 6.06 19.37
  A 19.40 18.84 87.1 0 0 5.14 23.68
  A 19.23 18.72 86.8 0 0 5.36 29.13
  A 19.22 18.69 -89.7 0 0 12.00 40.55
  A 19.20 18.69 89.1 0 0 34.25 41.47
  A 19.22 18.71 -89.9 0 0 42.11 29.06
  A 19.20 18.68 -89.7 0 0 36.07 11.18
  A 19.46 18.78 86.9 0 0 31.67 8.22
  A 19.25 18.70 87.7 0 0 27.70 6.84
  A 19.20 18.68 -89.5 0 0 15.43 8.40
  A 19.19 18.70 -89.8 0 0 6.06 19.37
  Z"
/>
<path fill="#ce0909" d="
  M 38.04 7.95
  A 23.01 22.38 -89.3 0 1 46.00 23.27
  A 22.98 22.39 -89.9 0 1 30.91 47.38
  A 22.99 22.39 87.7 0 1 14.78 46.68
  A 23.02 22.37 89.7 0 1 4.11 36.68
  A 22.91 22.30 -88.6 0 1 1.37 24.69
  Q 2.52 24.51 3.19 24.76
  Q 3.35 35.40 10.26 41.44
  C 22.27 51.95 39.96 45.79 43.60 30.39
  Q 46.37 18.64 36.72 9.17
  Q 36.92 8.23 38.04 7.95
  Z"
/>
</g>
<g>
<path fill="#fc3534" d="
  M 27.70 6.84
  Q 17.12 13.89 6.06 19.37
  A 19.19 18.70 -89.8 0 1 15.43 8.40
  A 19.20 18.68 -89.5 0 1 27.70 6.84
  Z"
/>
<path fill="#ed2626" d="
  M 27.70 6.84
  A 19.25 18.70 87.7 0 1 31.67 8.22
  L 5.14 23.68
  A 19.40 18.84 87.1 0 1 6.06 19.37
  Q 17.12 13.89 27.70 6.84
  Z"
/>
<path fill="#da1415" d="
  M 31.67 8.22
  A 19.46 18.78 86.9 0 1 36.07 11.18
  L 5.36 29.13
  A 19.23 18.72 86.8 0 1 5.14 23.68
  L 31.67 8.22
  Z"
/>
<path fill="#ce0909" d="
  M 36.07 11.18
  A 19.20 18.68 -89.7 0 1 42.11 29.06
  A 19.22 18.71 -89.9 0 1 34.25 41.47
  A 19.20 18.69 89.1 0 1 12.00 40.55
  A 19.22 18.69 -89.7 0 1 5.36 29.13
  L 36.07 11.18
  Z"
/>
</g>
</svg>
